<svg t="1586595658283" class="icon" viewBox="0 0 1024 1024" version="1.1" xmlns="http://www.w3.org/2000/svg" p-id="2281" width="200" height="200"><path d="M859.593068 436.942537c-10.769274-0.206708-122.532731-0.733711-196.027605-1.041726l-76.135004-0.318248 24.181749-72.198346c9.246595-27.597545 13.737886-63.934125 13.737886-111.083981 0-19.101033-1.657756-38.337143-4.949732-57.362452l-2.960425-12.787234c-4.906753-22.199605-22.850427-37.70474-43.653219-37.70474-25.457812 0-37.061081 26.178219-37.061081 50.502208l-0.073678 4.731768-0.025583 1.182942 0.159636 2.003634-0.079818 3.022847c-3.100618 115.697045-81.539085 215.459167-189.356672 249.180176l-0.620124 404.631644 446.036659-0.030699c4.708232 0 5.385661 0 15.752776-6.856152 6.004761-4.003174 11.150968-9.568936 14.9679-16.176424 10.352789-41.878806 72.005964-319.870168 76.999698-350.84667 0.340761-7.913227-0.798179-19.175735-7.492648-30.446429C886.43132 444.334901 878.843504 437.767322 859.593068 436.942537zM130.0351 467.677539l73.955362 0 0 392.238382-73.955362 0 0-392.238382ZM301.695738 914.792763c-0.075725 0.031722-0.071631 0.039909 0 0.039909 0.057305 0 0.147356 0 0.261966-0.008186 0.127913 0.008186 0.227174 0.008186 0.280386 0.008186 0.084934 0 0.090051-0.008186 0-0.039909 0.103354-0.020466 0.181125-0.039909 0.192382-0.051165l-0.004093 0-0.927115 0C301.509497 914.752854 301.590338 914.77332 301.695738 914.792763zM220.329593 412.642085 113.69597 412.642085c-21.385053 0-38.695301 17.86488-38.695301 39.885406l0 422.542572c0 22.014386 17.310248 39.884382 38.695301 39.884382l106.633622 0c21.388123 0 38.696324-17.869996 38.696324-39.884382L259.025916 452.52749C259.025916 430.509011 241.717715 412.642085 220.329593 412.642085zM203.990462 859.914898 130.0351 859.914898 130.0351 467.677539l73.955362 0L203.990462 859.914898zM940.307368 427.240571c-18.625196-31.272237-45.690622-43.899836-78.431304-45.282323-1.698688-0.265036-198.078311-1.089821-198.078311-1.089821 13.009292-38.821167 16.58677-85.09098 16.58677-128.563074 0-28.210505-3.062755-55.652508-8.722662-82.08246l-0.481977 0.053212c-10.237155-46.318932-49.915853-80.861656-97.393167-80.861656-55.252395 0-92.093465 47.889707-92.093465 105.536638 0 3.243881-0.25685 6.355755 0 9.465582-2.894933 107.796098-88.025822 194.451714-189.311647 206.336392l-0.772596 56.925501 57.432037-13.153578c106.943684-34.232662 184.579879-133.543506 187.665147-248.632707l0.079818-3.022847-0.159636-2.003634 0.025583-1.182942 0.073678-4.731768c0-24.323988 11.603269-50.502208 37.061081-50.502208 20.802792 0 38.746466 15.504112 43.653219 37.70474l2.960425 12.787234c3.291976 19.024286 4.949732 38.261419 4.949732 57.362452 0 47.15088-4.491291 83.486436-13.737886 111.083981l-24.181749 72.198346 76.135004 0.318248c73.493851 0.308015 185.257308 0.835018 196.027605 1.041726 19.25146 0.823761 26.839275 7.391341 33.399691 18.403139 6.694469 11.271718 7.833409 22.534226 7.492648 30.446429-4.993734 30.976502-66.646909 308.967864-76.999698 350.84667-3.815909 6.607488-8.963139 12.173251-14.9679 16.176424-10.367115 6.856152-11.044544 6.856152-15.752776 6.856152l-411.407977 0.028653 0 0-5.852288 0-28.776394 0.002047 0-0.002047-55.034431 0-0.084934 55.04057 9.886161 0c-0.01228-0.019443 0.106424-0.027629 0.460488-0.027629 0.369414 0 0.485047 0.00921 0.470721 0.027629l490.338654-0.027629c0.109494 0 0.210801 0 0.313132 0 18.503423 0 28.960589-4.852518 45.816488-16.003486 16.068977-10.723226 28.220738-25.374924 36.141128-41.933041 2.192945-3.326768 78.313623-345.32491 80.260975-365.617072C956.81432 469.51642 952.125531 447.128527 940.307368 427.240571z" p-id="2282"></path></svg>